<?xml version="1.0" encoding="UTF-8"?>
<!DOCTYPE svg PUBLIC "-//W3C//DTD SVG 1.1//EN" "http://www.w3.org/Graphics/SVG/1.1/DTD/svg11.dtd">
<!-- Creator: CorelDRAW X7 -->
<svg xmlns="http://www.w3.org/2000/svg" xml:space="preserve" width="4.2427mm" height="4.2426mm" version="1.1" style="shape-rendering:geometricPrecision; text-rendering:geometricPrecision; image-rendering:optimizeQuality; fill-rule:evenodd; clip-rule:evenodd"
viewBox="0 0 46 46"
 xmlns:xlink="http://www.w3.org/1999/xlink">
 <defs>
  <style type="text/css">
   <![CDATA[
    .fil1 {fill:#FEFEFE}
    .fil0 {fill:#FEFEFE;fill-rule:nonzero}
   ]]>
  </style>
 </defs>
 <g id="Capa_x0020_1">
  <metadata id="CorelCorpID_0Corel-Layer"/>
  <g id="_2258708116992">
   <polygon class="fil0" points="35,17 29,17 29,15 35,15 35,8 38,8 38,15 45,15 45,17 38,17 38,24 35,24 "/>
   <path class="fil1" d="M2 9c0,-1 0,-2 0,-3 2,-1 4,-4 6,-4 2,0 2,0 3,1 2,1 5,5 5,7 0,3 -4,4 -4,6 0,2 0,3 1,4 1,1 1,2 2,3 1,2 2,2 4,4 0,0 0,0 0,0l3 3c2,2 6,5 8,5 2,0 2,-1 4,-3 1,-1 1,-1 3,-1 1,0 4,2 5,2 1,2 3,3 3,5 0,2 -3,5 -5,6 -2,2 -9,-1 -11,-2l-3 -1c-2,-1 -6,-4 -8,-5l-4 -4c0,0 0,0 0,0 0,-1 0,-1 -1,-1l-3 -4c-2,-2 -2,-3 -4,-5 -2,-3 -4,-9 -4,-13zm6 -9l1 0c1,0 2,1 3,1 2,2 3,4 4,6 1,1 1,2 1,4 0,1 -1,3 -2,3 -1,1 -2,2 -2,2 0,2 2,5 3,6l7 6c0,0 0,0 0,1 1,1 5,4 7,4 2,0 4,-6 10,-3 2,1 6,5 6,8 0,2 0,2 -1,4l-2 2c-2,2 -2,2 -6,2l0 0c-4,0 -8,-1 -11,-3l-3 -2c-6,-3 -12,-10 -16,-15 -2,-3 -4,-6 -5,-9l-1 -3c-1,-2 -1,-3 -1,-5l0 -1c0,-1 1,-2 1,-3 0,0 3,-3 4,-3l1 -1c0,-1 1,-1 2,-1z"/>
  </g>
 </g>
</svg>
