<?xml version="1.0" encoding="UTF-8"?>
<!DOCTYPE svg PUBLIC "-//W3C//DTD SVG 1.1//EN" "http://www.w3.org/Graphics/SVG/1.1/DTD/svg11.dtd">
<!-- Creator: CorelDRAW X7 -->
<svg xmlns="http://www.w3.org/2000/svg" xml:space="preserve" width="4.941mm" height="4.6451mm" version="1.1" style="shape-rendering:geometricPrecision; text-rendering:geometricPrecision; image-rendering:optimizeQuality; fill-rule:evenodd; clip-rule:evenodd"
viewBox="0 0 22 20"
 xmlns:xlink="http://www.w3.org/1999/xlink">
 <defs>
  <style type="text/css">
   <![CDATA[
    .fil0 {fill:#9D9E9E}
   ]]>
  </style>
 </defs>
 <g id="Capa_x0020_1">
  <metadata id="CorelCorpID_0Corel-Layer"/>
  <g id="_2258845765760">
   <path class="fil0" d="M0 6l0 12c0,1 0,1 1,2 0,0 0,0 1,0l18 0c0,0 1,-1 1,-2l0 -12c0,0 0,0 0,0 0,0 0,0 0,0l0 11c0,1 0,3 -2,3l-17 0c-1,0 -1,-1 -1,-3 0,0 0,-11 0,-11 0,0 -1,0 -1,0z"/>
   <path class="fil0" d="M5 0l0 2c0,0 -3,0 -4,0 0,0 0,0 0,0 -1,0 -1,1 -1,1l0 3c0,0 0,0 0,0l21 0c0,0 1,0 1,0l0 -3c0,0 -1,-1 -1,-1 -1,-1 -3,0 -4,0 0,0 0,0 0,0 1,0 2,0 3,1 0,0 0,0 0,0 1,0 1,1 1,2l-20 0c0,-1 0,-2 0,-2 0,-1 1,-1 1,-1l3 0 0 2c0,0 1,0 1,0l0 -4c0,0 0,0 0,0l0 0c0,0 -1,0 -1,0z"/>
   <path class="fil0" d="M15 0l0 2 -8 0c0,0 0,0 0,0l8 0 0 2c0,0 1,0 1,0l0 -4c0,0 0,0 0,0l0 0c0,0 -1,0 -1,0z"/>
  </g>
 </g>
</svg>
