<?xml version="1.0" encoding="UTF-8"?>
<!DOCTYPE svg PUBLIC "-//W3C//DTD SVG 1.1//EN" "http://www.w3.org/Graphics/SVG/1.1/DTD/svg11.dtd">
<!-- Creator: CorelDRAW X7 -->
<svg xmlns="http://www.w3.org/2000/svg" xml:space="preserve" width="7.4377mm" height="6.8451mm" version="1.1" style="shape-rendering:geometricPrecision; text-rendering:geometricPrecision; image-rendering:optimizeQuality; fill-rule:evenodd; clip-rule:evenodd"
viewBox="0 0 20 18"
 xmlns:xlink="http://www.w3.org/1999/xlink">
 <defs>
  <style type="text/css">
   <![CDATA[
    .str0 {stroke:#FEFEFE;stroke-width:0.532446}
    .fil0 {fill:#FEFEFE}
    .fil1 {fill:#2B2A29;fill-rule:nonzero}
   ]]>
  </style>
 </defs>
 <g id="Capa_x0020_1">
  <metadata id="CorelCorpID_0Corel-Layer"/>
  <path class="fil0 str0" d="M1 0l18 0c0,0 1,1 1,1l0 16c0,1 -1,1 -1,1l-18 0c0,0 -1,0 -1,-1l0 -16c0,0 1,-1 1,-1zm6 11l1 1c-1,0 -2,1 -3,1 -1,0 -1,-1 -2,-1 -1,-1 -1,-2 -1,-3 0,-1 0,-2 1,-2 1,-1 1,-1 2,-1 1,0 2,0 3,1l-1 0c0,-1 -1,-1 -2,-1 -1,0 -1,0 -2,1 0,1 -1,1 -1,2 0,1 1,2 1,2 1,1 1,1 2,1 1,0 2,0 2,-1zm3 -5c1,0 2,0 2,1 1,0 1,1 1,2 0,1 0,2 -1,3 0,0 -1,0 -2,0l-1 0 0 -6 1 0zm-1 0l0 6 1 0c1,0 1,0 2,-1 1,0 1,-1 1,-2 0,-1 0,-1 -1,-2 -1,-1 -1,-1 -2,-1l-1 0zm6 0l0 4 1 0c0,0 1,0 1,-1 0,0 1,-1 1,-1 0,-1 -1,-1 -1,-1 0,-1 -1,-1 -1,-1l-1 0zm1 4l-1 0 0 2 -1 0 0 -6 2 0c0,0 1,0 1,0 1,1 1,1 1,2 0,1 0,1 -1,1 0,1 0,1 -1,1l2 2 -1 0 -1 -2z"/>
  <path class="fil1" d="M7 11l1 1c-1,0 -2,1 -3,1 -1,0 -1,-1 -2,-1 -1,-1 -1,-2 -1,-3 0,-1 0,-2 1,-2 1,-1 1,-1 2,-1 1,0 2,0 3,1l-1 0c0,-1 -1,-1 -2,-1 -1,0 -1,0 -2,1 0,1 -1,1 -1,2 0,1 1,2 1,2 1,1 1,1 2,1 1,0 2,0 2,-1z"/>
  <path id="1" class="fil1" d="M10 6c1,0 2,0 2,1 1,0 1,1 1,2 0,1 0,2 -1,3 0,0 -1,0 -2,0l-1 0 0 -6 1 0zm-1 0l0 6 1 0c1,0 1,0 2,-1 1,0 1,-1 1,-2 0,-1 0,-1 -1,-2 -1,-1 -1,-1 -2,-1l-1 0z"/>
  <path id="2" class="fil1" d="M15 6l0 4 1 0c0,0 1,0 1,-1 0,0 1,-1 1,-1 0,-1 -1,-1 -1,-1 0,-1 -1,-1 -1,-1l-1 0zm1 4l-1 0 0 2 -1 0 0 -6 2 0c0,0 1,0 1,0 1,1 1,1 1,2 0,1 0,1 -1,1 0,1 0,1 -1,1l2 2 -1 0 -1 -2z"/>
 </g>
</svg>
