<?xml version="1.0" encoding="UTF-8"?>
<!DOCTYPE svg PUBLIC "-//W3C//DTD SVG 1.1//EN" "http://www.w3.org/Graphics/SVG/1.1/DTD/svg11.dtd">
<!-- Creator: CorelDRAW X7 -->
<svg xmlns="http://www.w3.org/2000/svg" xml:space="preserve" width="5.4728mm" height="6.7814mm" version="1.1" style="shape-rendering:geometricPrecision; text-rendering:geometricPrecision; image-rendering:optimizeQuality; fill-rule:evenodd; clip-rule:evenodd"
viewBox="0 0 11 13"
 xmlns:xlink="http://www.w3.org/1999/xlink">
 <defs>
  <style type="text/css">
   <![CDATA[
    .str0 {stroke:#FEFEFE;stroke-width:0.982542}
    .fil0 {fill:none}
    .fil1 {fill:#D9DADA}
   ]]>
  </style>
 </defs>
 <g id="Capa_x0020_1">
  <metadata id="CorelCorpID_0Corel-Layer"/>
  <g id="_2224200680208">
   <path class="fil0 str0" d="M2 0l7 0c1,0 1,1 1,2l0 9c0,1 0,2 -1,2l-7 0c-1,0 -2,-1 -2,-2l0 -9c0,-1 1,-2 2,-2zm7 0l0 13"/>
   <path class="fil1" d="M3 6l0 1c0,0 1,0 1,1 0,1 0,0 -2,1 0,1 0,1 0,2 0,0 0,1 0,0 0,-1 0,-1 1,-1l0 -1c0,0 0,0 1,0 0,0 0,0 0,-1 0,-1 0,-1 0,-1l0 -1c0,-1 0,-1 1,-1l0 0c0,0 1,0 1,1l0 1c0,0 0,0 0,0l0 2c0,0 0,0 0,0 1,0 1,0 1,1 1,0 0,0 1,1 0,0 0,1 0,0 0,-1 0,-1 -1,-2 0,0 0,0 0,0 -1,-1 -1,0 -1,-1 0,-1 0,-1 0,-1l0 -1c0,-1 0,-1 0,-1 -1,-1 -2,-1 -2,0 0,0 -1,0 -1,1z"/>
  </g>
 </g>
</svg>
