<?xml version="1.0" encoding="UTF-8"?>
<!DOCTYPE svg PUBLIC "-//W3C//DTD SVG 1.1//EN" "http://www.w3.org/Graphics/SVG/1.1/DTD/svg11.dtd">
<!-- Creator: CorelDRAW X7 -->
<svg xmlns="http://www.w3.org/2000/svg" xml:space="preserve" width="5.0787mm" height="3.571mm" version="1.1" style="shape-rendering:geometricPrecision; text-rendering:geometricPrecision; image-rendering:optimizeQuality; fill-rule:evenodd; clip-rule:evenodd"
viewBox="0 0 54 38"
 xmlns:xlink="http://www.w3.org/1999/xlink">
 <defs>
  <style type="text/css">
   <![CDATA[
    .fil0 {fill:#FEFEFE}
   ]]>
  </style>
 </defs>
 <g id="Capa_x0020_1">
  <metadata id="CorelCorpID_0Corel-Layer"/>
  <path class="fil0" d="M27 8l7 7c1,0 6,-6 7,-7l4 4 -7 7 7 7 -4 4c-1,-1 -6,-7 -7,-7l-7 7 -4 -4 7 -7 -7 -7 4 -4zm-27 11c0,1 0,1 1,2l5 4c0,0 0,1 1,1l10 9c2,2 4,3 7,3l24 0c2,0 3,0 4,-1l1 -1c0,0 1,-2 1,-3l0 -28c0,-1 0,-2 -1,-3l0 0c-1,-1 -3,-2 -5,-2l-24 0c-2,0 -4,1 -5,2 -1,0 -1,0 -1,0 0,1 0,1 -1,1 0,0 0,0 0,1 -2,1 -5,3 -6,5 0,0 0,0 -1,0l-3 3c-1,0 -1,1 -1,1 -1,1 -4,3 -5,4 0,1 -1,1 -1,2z"/>
 </g>
</svg>
