<?xml version="1.0" encoding="UTF-8"?>
<!DOCTYPE svg PUBLIC "-//W3C//DTD SVG 1.1//EN" "http://www.w3.org/Graphics/SVG/1.1/DTD/svg11.dtd">
<!-- Creator: CorelDRAW X7 -->
<svg xmlns="http://www.w3.org/2000/svg" xml:space="preserve" width="6.212mm" height="7.6455mm" version="1.1" style="shape-rendering:geometricPrecision; text-rendering:geometricPrecision; image-rendering:optimizeQuality; fill-rule:evenodd; clip-rule:evenodd"
viewBox="0 0 36 44"
 xmlns:xlink="http://www.w3.org/1999/xlink">
 <defs>
  <style type="text/css">
   <![CDATA[
    .fil0 {fill:#FEFEFE}
   ]]>
  </style>
 </defs>
 <g id="Capa_x0020_1">
  <metadata id="CorelCorpID_0Corel-Layer"/>
  <g id="_2588712941792">
   <path class="fil0" d="M11 25l0 -16c0,-1 1,-2 1,-3 2,-5 10,-6 12,-1 1,1 1,2 1,3l0 19c0,1 0,2 -1,3 0,0 0,0 0,1 -2,3 -7,3 -10,1 -2,-2 -3,-4 -3,-7zm7 -25l1 0c1,0 2,0 3,1 3,1 5,4 5,7l0 19c0,2 -2,4 -3,6 -2,2 -6,3 -9,1 -1,0 -1,0 -1,0 -1,-1 -1,-1 -2,-1 -1,-2 -2,-4 -2,-6l0 -19c0,-2 1,-4 2,-6 1,0 2,-1 3,-1 1,-1 2,-1 3,-1z"/>
   <path class="fil0" d="M6 22c0,3 0,7 1,10 2,2 3,4 6,6 1,0 3,1 4,1l0 4 -3 0c-1,0 -1,1 0,1l9 0c1,0 1,-1 0,-1l-4 0 0 -4c2,0 5,-1 6,-3 1,0 1,0 2,-1 2,-1 3,-3 3,-5 1,-3 0,-6 0,-8 0,-1 -1,-1 -1,0l0 4c0,1 0,3 -1,4l0 1c0,1 -1,1 -1,1 -3,5 -9,7 -14,4 0,-1 -1,-1 -1,-1 0,0 -1,0 -1,-1 0,0 -1,-1 -2,-2 0,-1 -1,-3 -1,-5l0 -3c0,-2 0,-3 -1,-3 -1,0 -1,1 -1,1z"/>
   <path class="fil0" d="M13 27c1,0 1,-1 2,-2l9 -9c0,0 0,-1 0,-1 0,0 0,-1 0,-1 -1,0 -3,3 -4,3l-7 8c0,0 -1,0 -1,1 0,0 0,1 1,1z"/>
   <path class="fil0" d="M27 11c0,0 1,0 1,0 1,0 4,-3 4,-3 1,-1 4,-4 4,-4 0,-1 -1,-1 -1,-1 -1,0 -2,1 -2,2l-5 4c0,1 -1,1 -1,2z"/>
   <path class="fil0" d="M0 38c0,0 0,1 1,1 0,0 2,-2 3,-3 0,0 3,-3 3,-3l0 -1c0,0 -1,0 -1,0 0,0 -1,0 -1,1 -1,0 -1,1 -2,1 0,1 -1,2 -1,2 -1,1 -2,1 -2,2z"/>
  </g>
 </g>
</svg>
