<?xml version="1.0" encoding="UTF-8"?>
<!DOCTYPE svg PUBLIC "-//W3C//DTD SVG 1.1//EN" "http://www.w3.org/Graphics/SVG/1.1/DTD/svg11.dtd">
<!-- Creator: CorelDRAW X7 -->
<svg xmlns="http://www.w3.org/2000/svg" xml:space="preserve" width="5.6692mm" height="7.8875mm" version="1.1" style="shape-rendering:geometricPrecision; text-rendering:geometricPrecision; image-rendering:optimizeQuality; fill-rule:evenodd; clip-rule:evenodd"
viewBox="0 0 43 59"
 xmlns:xlink="http://www.w3.org/1999/xlink">
 <defs>
  <style type="text/css">
   <![CDATA[
    .fil0 {fill:#FEFEFE}
   ]]>
  </style>
 </defs>
 <g id="Capa_x0020_1">
  <metadata id="CorelCorpID_0Corel-Layer"/>
  <g id="_2588712922112">
   <path class="fil0" d="M31 52l0 -45c0,-1 0,-2 0,-3 2,-2 7,-2 8,0 1,1 1,2 1,3l0 45c0,1 0,3 -1,3 -1,2 -6,2 -8,0 0,0 0,-2 0,-3zm2 -52l5 0c2,0 5,3 5,6l0 47c0,2 -1,4 -2,4 -1,2 -2,2 -3,2l-5 0c-3,0 -5,-2 -5,-6l0 -47c0,-2 0,-3 1,-4 1,-1 3,-2 4,-2z"/>
   <path class="fil0" d="M3 52l0 -45c0,-5 3,-4 6,-4 2,0 3,2 3,4l0 45c0,5 -3,5 -6,5 -2,0 -3,-3 -3,-5zm2 -52l5 0c1,0 2,1 3,2 1,1 2,2 2,4l0 47c0,2 -1,4 -2,4 -1,2 -2,2 -3,2l-5 0c-3,0 -5,-2 -5,-6l0 -47c0,-3 2,-6 5,-6z"/>
  </g>
 </g>
</svg>
