<?xml version="1.0" encoding="UTF-8"?>
<!DOCTYPE svg PUBLIC "-//W3C//DTD SVG 1.1//EN" "http://www.w3.org/Graphics/SVG/1.1/DTD/svg11.dtd">
<!-- Creator: CorelDRAW X7 -->
<svg xmlns="http://www.w3.org/2000/svg" xml:space="preserve" width="7.0798mm" height="7.0798mm" version="1.1" style="shape-rendering:geometricPrecision; text-rendering:geometricPrecision; image-rendering:optimizeQuality; fill-rule:evenodd; clip-rule:evenodd"
viewBox="0 0 31 31"
 xmlns:xlink="http://www.w3.org/1999/xlink">
 <defs>
  <style type="text/css">
   <![CDATA[
    .fil0 {fill:#9D9E9E}
   ]]>
  </style>
 </defs>
 <g id="Capa_x0020_1">
  <metadata id="CorelCorpID_0Corel-Layer"/>
  <path class="fil0" d="M10 19c2,0 1,0 2,1l3 2c0,0 0,1 1,1 0,0 4,-4 4,-4 2,0 3,0 5,1 1,1 2,2 2,3 0,1 1,1 0,1l-1 1c0,1 -2,2 -2,2l0 -2 -1 0 0 3 -2 1c-1,1 -3,1 -5,1 -2,0 -3,0 -5,0 0,-1 -1,-1 -2,-1 0,-1 0,-1 -1,-1l0 -3 -1 0 0 2c0,0 -3,-2 -3,-3 0,0 0,0 0,0 0,-1 0,-1 0,-2 0,0 1,-1 1,-1 0,0 1,-1 1,-1 1,-1 2,-1 4,-1zm5 -19l1 0c2,0 4,1 6,1 1,1 3,2 4,3 1,1 1,1 2,2 1,1 1,2 2,3 0,0 0,0 0,1 1,2 1,3 1,6 0,2 0,5 -1,6l-2 3c0,1 -1,1 -1,2 -3,2 -7,4 -11,4l0 0c-3,0 -3,0 -6,-1 0,0 -1,0 -1,0 -1,0 -1,-1 -1,-1 -2,-1 -3,-2 -4,-3l-1 -1c0,-1 -1,-2 -2,-3 0,0 0,-1 0,-1l-1 -1c0,-2 0,-3 0,-4l0 0 0 -1 0 0c0,-2 0,-4 1,-5 1,-1 1,-3 2,-4 1,-1 2,-1 3,-2l1 -1c0,-1 1,-1 1,-1 1,0 1,0 1,-1 1,0 1,0 3,-1 1,0 2,0 3,0zm-6 8c0,0 0,0 0,-1 0,0 1,0 1,0 2,-2 3,0 4,0 1,0 2,0 3,-1 0,0 1,-1 1,-1 1,0 1,0 1,0 1,0 1,1 2,1 0,0 1,1 1,2 0,2 0,4 -1,6 -1,0 -1,1 -2,2 -1,0 -2,0 -2,1 0,2 1,2 1,2l-2 3 -3 -3c0,0 0,0 0,0 0,0 1,-1 1,-1 0,0 0,0 0,-1 0,-1 -1,-1 -2,-1 -2,-2 -3,-6 -3,-8zm0 -2l0 0zm0 0c0,-1 2,-3 2,-3 1,-1 1,-1 1,-1 3,-2 7,-1 9,2 0,0 1,1 1,1 -1,0 -1,0 -2,-1 -1,0 -2,-1 -2,-1 -1,1 -1,1 -2,2 0,0 -1,1 -2,1 -1,-1 -2,-1 -4,-1 0,0 -1,1 -1,1zm12 -4c1,0 2,1 3,2 1,1 3,3 4,5 0,0 1,0 1,0 0,1 0,1 0,1 1,2 1,4 1,7 0,0 0,1 0,1 0,1 -1,4 -2,5 0,0 0,0 0,0 0,-1 -1,-2 -1,-3 0,0 -1,-1 -2,-1 -3,-2 -5,-1 -7,-1 0,-1 0,-1 0,-1 0,0 0,0 0,0 0,0 1,0 1,0 0,0 0,0 0,0 3,-2 5,-8 4,-11 0,-2 -1,-2 -2,-3 0,-1 0,-1 0,-1zm-11 0c0,1 0,1 -1,2 0,0 -1,1 -1,2 0,1 0,3 0,5 1,2 2,5 5,6l0 0c0,0 0,0 0,1 -2,0 -3,-1 -5,0 -2,0 -4,2 -5,3 0,1 0,1 0,2l0 -1c-1,-1 -1,-3 -2,-4 0,-3 0,-5 1,-8 1,-3 4,-6 7,-7 0,0 1,-1 1,-1zm11 0l0 0zm-11 0l0 0z"/>
 </g>
</svg>
