<?xml version="1.0" encoding="UTF-8"?>
<!DOCTYPE svg PUBLIC "-//W3C//DTD SVG 1.1//EN" "http://www.w3.org/Graphics/SVG/1.1/DTD/svg11.dtd">
<!-- Creator: CorelDRAW X7 -->
<svg xmlns="http://www.w3.org/2000/svg" xml:space="preserve" width="3.7164mm" height="3.7164mm" version="1.1" style="shape-rendering:geometricPrecision; text-rendering:geometricPrecision; image-rendering:optimizeQuality; fill-rule:evenodd; clip-rule:evenodd"
viewBox="0 0 25 25"
 xmlns:xlink="http://www.w3.org/1999/xlink">
 <defs>
  <style type="text/css">
   <![CDATA[
    .fil0 {fill:#FEFEFE}
   ]]>
  </style>
 </defs>
 <g id="Capa_x0020_1">
  <metadata id="CorelCorpID_0Corel-Layer"/>
  <path class="fil0" d="M1 5c0,-1 0,-1 0,-2 1,-1 2,-2 3,-2 1,0 2,0 2,1 1,0 2,2 2,3 0,2 -2,2 -2,4 0,0 0,1 1,2 0,0 1,0 1,1 1,1 1,1 2,2 0,0 0,0 0,0l2 2c1,1 3,2 4,2 1,0 1,0 2,-1 0,0 1,-1 1,-1 1,0 3,1 3,2 1,0 2,1 2,2 0,1 -2,3 -3,3 -1,1 -5,0 -6,-1l-1 0c-1,-1 -3,-2 -4,-3l-2 -2c0,0 -1,0 -1,0 0,0 0,-1 0,-1l-2 -2c-1,-1 -1,-1 -2,-2 -1,-2 -2,-5 -2,-7zm3 -5l1 0c0,0 1,0 1,1 1,0 2,2 3,2 0,1 0,2 0,3 0,0 -1,1 -1,2 0,0 -1,0 -1,1 0,1 1,2 2,3l3 3c0,0 0,0 0,0 1,1 3,2 4,2 1,0 2,-3 5,-1 1,1 4,2 4,4 0,1 -1,1 -1,2l-1 1c-1,1 -2,2 -4,2l0 0c-1,0 -4,-1 -5,-2l-2 -1c-3,-2 -6,-5 -8,-8 -1,-2 -2,-3 -3,-5l-1 -2c0,-1 0,-1 0,-2l0 -1c0,0 0,-1 1,-1 0,-1 1,-2 1,-2l1 -1c0,0 1,0 1,0z"/>
 </g>
</svg>
